<svg width="512" height="512" viewBox="0 0 512 512" fill="none" xmlns="http://www.w3.org/2000/svg">
<path d="M455.262 187.91C448.472 181.121 440.233 177.729 430.532 177.729H418.902V163.907C418.902 119.302 402.906 81.0023 370.905 49.0022C338.906 17.0007 300.61 1 255.999 1C211.388 1 173.085 17.0007 141.088 49.0009C109.087 81.0023 93.0914 119.301 93.0914 163.907V177.729H81.4567C71.763 177.729 63.5188 181.121 56.7303 187.91C49.9418 194.693 46.5488 202.937 46.5488 212.64V477.092C46.5488 486.786 49.9431 495.033 56.7303 501.822C63.5188 508.604 71.763 512 81.4567 512H430.541C440.242 512 448.48 508.608 455.271 501.822C462.053 495.033 465.452 486.786 465.452 477.092V212.636C465.457 202.941 462.053 194.698 455.262 187.91ZM349.088 177.73H162.91V163.907C162.91 138.212 172.002 116.271 190.183 98.092C208.367 79.9108 230.304 70.8221 256.002 70.8221C281.703 70.8221 303.635 79.9095 321.82 98.092C339.996 116.269 349.088 138.212 349.088 163.907V177.73Z" fill="#474BFF"/>
<path d="M135.989 404C124.773 404 115.728 400.73 108.854 394.191C101.98 387.651 98.3618 380.022 98 371.302H119.572C120.296 375.299 122.105 378.432 124.999 380.703C127.984 382.883 131.647 383.973 135.989 383.973C139.697 383.973 142.682 383.201 144.943 381.657C147.295 380.113 148.471 378.024 148.471 375.39C148.471 370.757 144.265 367.261 135.853 364.899L126.492 362.447C118.442 360.267 112.11 356.725 107.497 351.82C102.884 346.916 100.533 340.785 100.442 333.428C100.442 324.436 103.427 317.306 109.397 312.038C115.457 306.679 123.507 304 133.547 304C143.677 304 151.908 307.088 158.239 313.264C164.571 319.35 167.918 326.343 168.279 334.245H146.843C145.848 330.703 144.129 328.114 141.687 326.48C139.245 324.845 136.532 324.027 133.547 324.027C130.2 324.027 127.487 324.708 125.406 326.071C123.326 327.433 122.24 329.386 122.15 331.929C122.06 334.472 122.964 336.561 124.864 338.196C126.853 339.831 129.838 341.193 133.818 342.283L144.808 345.144C152.858 347.324 159.099 350.912 163.531 355.907C168.053 360.903 170.314 367.17 170.314 374.708C170.314 383.064 167.149 390.058 160.817 395.689C154.486 401.23 146.21 404 135.989 404Z" fill="white"/>
<path d="M185.451 402.365V305.635H207.023V343.51H245.826V305.635H267.398V402.365H245.826V364.082H207.023V402.365H185.451Z" fill="white"/>
<path d="M277.425 402.365L318.67 305.635H338.207L379.452 402.365H356.93L348.383 381.929H308.495L299.947 402.365H277.425ZM328.439 334.109L316.228 363.128H340.514L328.439 334.109Z" fill="white"/>
<path d="M394.513 402.365V325.935H373.619L388.272 305.635H415V402.365H394.513Z" fill="white"/>
</svg>
